<svg width="201px" height="201px" viewBox="-4.8 -4.8 57.60 57.60" id="Layer_2" data-name="Layer 2" xmlns="http://www.w3.org/2000/svg" fill="#002d75" stroke="#002d75" stroke-width="2.496" transform="matrix(1, 0, 0, 1, 0, 0)rotate(0)"><g id="SVGRepo_bgCarrier" stroke-width="0"></g><g id="SVGRepo_tracerCarrier" stroke-linecap="round" stroke-linejoin="round" stroke="##002d75" stroke-width="4.224"><defs><style>.cls-1{fill:none;stroke:#002d75;stroke-linecap:round;stroke-linejoin:round;}</style></defs><path class="cls-1" d="M40.5,5.5H7.5a2,2,0,0,0-2,2v33a2,2,0,0,0,2,2h33a2,2,0,0,0,2-2V7.5A2,2,0,0,0,40.5,5.5Z"></path><line class="cls-1" x1="14.95" y1="10.5" x2="14.95" y2="37.5"></line><line class="cls-1" x1="33.05" y1="37.5" x2="33.05" y2="10.5"></line><line class="cls-1" x1="14.95" y1="10.5" x2="33.05" y2="37.5"></line></g><g id="SVGRepo_iconCarrier"><defs><style>.cls-1{fill:none;stroke:#002d75;stroke-linecap:round;stroke-linejoin:round;}</style></defs><path class="cls-1" d="M40.5,5.5H7.5a2,2,0,0,0-2,2v33a2,2,0,0,0,2,2h33a2,2,0,0,0,2-2V7.5A2,2,0,0,0,40.5,5.5Z"></path><line class="cls-1" x1="14.95" y1="10.5" x2="14.95" y2="37.5"></line><line class="cls-1" x1="33.05" y1="37.5" x2="33.05" y2="10.5"></line><line class="cls-1" x1="14.95" y1="10.5" x2="33.05" y2="37.5"></line></g></svg>